<svg id="wave" style="transform:rotate(180deg); transition: 0.3s" viewBox="0 0 1440 490" version="1.1" xmlns="http://www.w3.org/2000/svg"><defs><linearGradient id="sw-gradient-0" x1="0" x2="0" y1="1" y2="0"><stop stop-color="rgba(243, 106, 62, 1)" offset="0%"></stop><stop stop-color="rgba(255, 179, 11, 1)" offset="100%"></stop></linearGradient></defs><path style="transform:translate(0, 0px); opacity:1" fill="url(#sw-gradient-0)" d="M0,147L10,147C20,147,40,147,60,171.5C80,196,100,245,120,294C140,343,160,392,180,408.3C200,425,220,408,240,343C260,278,280,163,300,171.5C320,180,340,310,360,318.5C380,327,400,212,420,187.8C440,163,460,229,480,269.5C500,310,520,327,540,318.5C560,310,580,278,600,236.8C620,196,640,147,660,138.8C680,131,700,163,720,147C740,131,760,65,780,40.8C800,16,820,33,840,98C860,163,880,278,900,326.7C920,376,940,359,960,334.8C980,310,1000,278,1020,253.2C1040,229,1060,212,1080,212.3C1100,212,1120,229,1140,269.5C1160,310,1180,376,1200,383.8C1220,392,1240,343,1260,302.2C1280,261,1300,229,1320,179.7C1340,131,1360,65,1380,57.2C1400,49,1420,98,1430,122.5L1440,147L1440,490L1430,490C1420,490,1400,490,1380,490C1360,490,1340,490,1320,490C1300,490,1280,490,1260,490C1240,490,1220,490,1200,490C1180,490,1160,490,1140,490C1120,490,1100,490,1080,490C1060,490,1040,490,1020,490C1000,490,980,490,960,490C940,490,920,490,900,490C880,490,860,490,840,490C820,490,800,490,780,490C760,490,740,490,720,490C700,490,680,490,660,490C640,490,620,490,600,490C580,490,560,490,540,490C520,490,500,490,480,490C460,490,440,490,420,490C400,490,380,490,360,490C340,490,320,490,300,490C280,490,260,490,240,490C220,490,200,490,180,490C160,490,140,490,120,490C100,490,80,490,60,490C40,490,20,490,10,490L0,490Z"></path><defs><linearGradient id="sw-gradient-1" x1="0" x2="0" y1="1" y2="0"><stop stop-color="rgba(243, 106, 62, 1)" offset="0%"></stop><stop stop-color="rgba(255, 179, 11, 1)" offset="100%"></stop></linearGradient></defs><path style="transform:translate(0, 50px); opacity:0.9" fill="url(#sw-gradient-1)" d="M0,147L10,163.3C20,180,40,212,60,253.2C80,294,100,343,120,351.2C140,359,160,327,180,277.7C200,229,220,163,240,130.7C260,98,280,98,300,114.3C320,131,340,163,360,163.3C380,163,400,131,420,114.3C440,98,460,98,480,155.2C500,212,520,327,540,318.5C560,310,580,180,600,155.2C620,131,640,212,660,245C680,278,700,261,720,261.3C740,261,760,278,780,236.8C800,196,820,98,840,114.3C860,131,880,261,900,334.8C920,408,940,425,960,375.7C980,327,1000,212,1020,147C1040,82,1060,65,1080,114.3C1100,163,1120,278,1140,326.7C1160,376,1180,359,1200,351.2C1220,343,1240,343,1260,359.3C1280,376,1300,408,1320,424.7C1340,441,1360,441,1380,375.7C1400,310,1420,180,1430,114.3L1440,49L1440,490L1430,490C1420,490,1400,490,1380,490C1360,490,1340,490,1320,490C1300,490,1280,490,1260,490C1240,490,1220,490,1200,490C1180,490,1160,490,1140,490C1120,490,1100,490,1080,490C1060,490,1040,490,1020,490C1000,490,980,490,960,490C940,490,920,490,900,490C880,490,860,490,840,490C820,490,800,490,780,490C760,490,740,490,720,490C700,490,680,490,660,490C640,490,620,490,600,490C580,490,560,490,540,490C520,490,500,490,480,490C460,490,440,490,420,490C400,490,380,490,360,490C340,490,320,490,300,490C280,490,260,490,240,490C220,490,200,490,180,490C160,490,140,490,120,490C100,490,80,490,60,490C40,490,20,490,10,490L0,490Z"></path></svg>